<svg width="34" height="32" viewBox="0 0 34 32" fill="none" xmlns="http://www.w3.org/2000/svg">
<path d="M32.9613 5.40075C32.3558 4.66301 31.4371 4.25239 30.4836 4.25239H9.79233C9.20075 4.25239 8.63702 4.41942 8.14984 4.71869L7.09196 1.02308C6.91797 0.417583 6.36815 0 5.74177 0H4.13408H1.06484C0.480221 0 0 0.473261 0 1.06484V1.17619C0 1.76081 0.473261 2.24103 1.06484 2.24103H5.08756L7.14068 9.50002L9.96632 19.5151C8.35863 19.9187 7.16852 21.3733 7.16852 23.0993C7.16852 25.055 8.6927 26.6627 10.6205 26.788C10.4605 27.2473 10.3839 27.7554 10.4257 28.2774C10.5649 30.0451 12.0055 31.4719 13.7733 31.5902C15.8821 31.7363 17.6429 30.059 17.6429 27.985C17.6429 27.5675 17.5733 27.1708 17.4411 26.7949H21.6726C21.4986 27.2891 21.429 27.8389 21.4916 28.4026C21.6865 30.1147 23.0993 31.4649 24.8253 31.5902C26.9341 31.7363 28.7019 30.066 28.7019 27.985C28.7019 25.9737 27.0316 24.366 25.0272 24.366H10.892C10.203 24.366 9.61834 23.8301 9.5905 23.148C9.56266 22.4242 10.1403 21.8327 10.8572 21.8327H12.9799H24.4843H27.7206C29.1543 21.8327 30.407 20.8513 30.755 19.4594L33.5667 8.14288C33.8103 7.16852 33.5876 6.17327 32.9613 5.40075ZM25.0898 26.788C25.744 26.788 26.2799 27.3239 26.2799 27.9781C26.2799 28.6323 25.744 29.1682 25.0898 29.1682C24.4356 29.1682 23.8997 28.6323 23.8997 27.9781C23.8997 27.3239 24.4286 26.788 25.0898 26.788ZM14.0308 26.788C14.685 26.788 15.2209 27.3239 15.2209 27.9781C15.2209 28.6323 14.685 29.1682 14.0308 29.1682C13.3766 29.1682 12.8407 28.6323 12.8407 27.9781C12.8407 27.3239 13.3696 26.788 14.0308 26.788ZM9.6601 9.4861L9.11724 7.57218C9.03372 7.27987 9.15204 7.06412 9.23555 6.95972C9.31211 6.85533 9.49306 6.68133 9.79233 6.68133H12.0612L12.6806 9.49306H9.6601V9.4861V9.4861ZM10.3421 11.9081H13.2096L13.7803 14.511H11.0729L10.3421 11.9081ZM12.9799 19.3968C12.6667 19.3968 12.3883 19.188 12.3048 18.8817L11.755 16.933H14.3092L14.852 19.3898H12.9799V19.3968V19.3968ZM19.0418 19.3968H17.3297L16.7869 16.94H19.0348V19.3968H19.0418ZM19.0418 14.511H16.2579L15.6872 11.9081H19.0418V14.511ZM19.0418 9.4861H15.1583L14.5389 6.67438H19.0418V9.4861ZM23.3847 19.3968H21.4707V16.94H23.8997L23.3847 19.3968ZM24.4147 14.511H21.4707V11.9081H24.9645L24.4147 14.511ZM21.4707 9.4861V6.67438H26.0642L25.4726 9.4861H21.4707ZM28.4096 18.8678C28.333 19.181 28.0546 19.4037 27.7275 19.4037H25.8623L26.3843 16.9469H28.8898L28.4096 18.8678ZM29.4884 14.511H26.8924L27.4422 11.9081H30.1356L29.4884 14.511ZM31.2144 7.54434L30.7341 9.47914H27.9503L28.5418 6.66741H30.5323C30.8316 6.66741 31.0056 6.83445 31.0821 6.93884C31.1656 7.04324 31.2909 7.25899 31.2144 7.54434Z" fill="#FF6347"/>
</svg>
