<svg width="34" height="32" viewBox="0 0 34 32" fill="none" xmlns="http://www.w3.org/2000/svg">
<path d="M33.2979 5.80162C32.6924 5.06389 31.7737 4.65327 30.8203 4.65327H10.129C9.53742 4.65327 8.97369 4.8203 8.48651 5.11957L7.42863 1.42396C7.25464 0.818462 6.70482 0.400879 6.07844 0.400879H4.47075H1.40151C0.816891 0.400879 0.33667 0.87414 0.33667 1.46572V1.57707C0.33667 2.16169 0.809931 2.64191 1.40151 2.64191H5.42423L7.47735 9.9009L10.303 19.9159C8.6953 20.3196 7.50519 21.7742 7.50519 23.5002C7.50519 25.4559 9.02937 27.0636 10.9572 27.1889C10.7971 27.6482 10.7206 28.1563 10.7623 28.6782C10.9015 30.446 12.3422 31.8728 14.11 31.9911C16.2188 32.1372 17.9796 30.4599 17.9796 28.3859C17.9796 27.9683 17.91 27.5716 17.7777 27.1958H22.0092C21.8353 27.69 21.7657 28.2398 21.8283 28.8035C22.0232 30.5156 23.436 31.8658 25.162 31.9911C27.2708 32.1372 29.0386 30.4669 29.0386 28.3859C29.0386 26.3746 27.3682 24.7669 25.3638 24.7669H11.2286C10.5396 24.7669 9.95501 24.231 9.92717 23.5489C9.89933 22.8251 10.477 22.2335 11.1938 22.2335H13.3166H24.821H28.0572C29.491 22.2335 30.7437 21.2522 31.0917 19.8603L33.9034 8.54376C34.147 7.56939 33.9243 6.57415 33.2979 5.80162ZM25.4265 27.1889C26.0807 27.1889 26.6166 27.7248 26.6166 28.379C26.6166 29.0332 26.0807 29.5691 25.4265 29.5691C24.7723 29.5691 24.2364 29.0332 24.2364 28.379C24.2364 27.7248 24.7653 27.1889 25.4265 27.1889ZM14.3675 27.1889C15.0217 27.1889 15.5576 27.7248 15.5576 28.379C15.5576 29.0332 15.0217 29.5691 14.3675 29.5691C13.7133 29.5691 13.1774 29.0332 13.1774 28.379C13.1774 27.7248 13.7063 27.1889 14.3675 27.1889ZM9.99677 9.88698L9.45391 7.97306C9.37039 7.68075 9.48871 7.465 9.57222 7.3606C9.64878 7.25621 9.82973 7.08221 10.129 7.08221H12.3979L13.0173 9.89394H9.99677V9.88698V9.88698ZM10.6788 12.309H13.5462L14.1169 14.9119H11.4096L10.6788 12.309ZM13.3166 19.7976C13.0034 19.7976 12.725 19.5888 12.6415 19.2826L12.0916 17.3339H14.6459L15.1887 19.7907H13.3166V19.7976V19.7976ZM19.3785 19.7976H17.6664L17.1235 17.3408H19.3715V19.7976H19.3785ZM19.3785 14.9119H16.5946L16.0239 12.309H19.3785V14.9119ZM19.3785 9.88698H15.4949L14.8755 7.07525H19.3785V9.88698ZM23.7213 19.7976H21.8074V17.3408H24.2364L23.7213 19.7976ZM24.7514 14.9119H21.8074V12.309H25.3012L24.7514 14.9119ZM21.8074 9.88698V7.07525H26.4008L25.8093 9.88698H21.8074ZM28.7463 19.2687C28.6697 19.5819 28.3913 19.8046 28.0642 19.8046H26.199L26.721 17.3478H29.2265L28.7463 19.2687ZM29.825 14.9119H27.229L27.7789 12.309H30.4723L29.825 14.9119ZM31.551 7.94522L31.0708 9.88002H28.2869L28.8785 7.06829H30.869C31.1682 7.06829 31.3422 7.23533 31.4188 7.33972C31.5023 7.44412 31.6276 7.65987 31.551 7.94522Z" fill="#C5C5C5"/>
</svg>
